<svg width="9" height="16" viewBox="0 0 9 16" fill="none" xmlns="http://www.w3.org/2000/svg">
<path d="M9 1.2835C9 1.41752 8.94845 1.53608 8.84536 1.63917L2.76804 7.71649L8.84536 13.7938C8.94845 13.8969 9 14.0155 9 14.1495C9 14.2835 8.94845 14.4021 8.84536 14.5051L8.07216 15.2783C7.96907 15.3814 7.85052 15.433 7.71649 15.433C7.58247 15.433 7.46392 15.3814 7.36082 15.2783L0.154639 8.07216C0.0515464 7.96907 0 7.85051 0 7.71649C0 7.58247 0.0515464 7.46391 0.154639 7.36082L7.36082 0.154633C7.46392 0.0515401 7.58247 -6.2827e-06 7.71649 -6.2827e-06C7.85052 -6.2827e-06 7.96907 0.0515401 8.07216 0.154633L8.84536 0.927829C8.94845 1.03092 9 1.14948 9 1.2835Z" fill="white"/>
</svg>
